<svg width="161" height="161" viewBox="0 0 161 161" fill="none" xmlns="http://www.w3.org/2000/svg">
    <path d="M98.4964 142.922C132.896 133.058 152.786 97.1754 142.922 62.7756C133.058 28.3758 97.1755 8.48567 62.7758 18.3496C28.376 28.2136 8.48583 64.0964 18.3498 98.4962C28.2138 132.896 64.0966 152.786 98.4964 142.922Z" fill="#00A5BD"/>
    <path d="M145.362 77.7013C145.219 74.5003 144.84 71.3633 144.249 68.2993C85.3693 77.6373 49.7293 57.5653 27.7963 43.1562C20.2773 53.7382 15.8413 66.6642 15.8413 80.6342C15.8413 87.5542 16.9373 94.2153 18.9453 100.467C87.6353 111.822 127.089 91.7833 145.362 77.7013Z" fill="white"/>
    <path d="M144.274 82.5982C144.274 82.5982 115.612 120.06 24.5193 113.01C27.5463 118.245 31.2803 123.016 35.5973 127.193C60.4033 125.654 121.647 118.248 144.274 82.5982Z" fill="white"/>
    <path d="M159.923 66.0473C159.663 63.5813 154.331 62.2613 153.315 61.8813C152.298 61.5023 149.663 58.3683 137.708 59.3673C133.675 59.7043 122.121 63.3233 107.472 67.9333L72.2443 54.0933L65.0713 45.5413L61.7443 45.8792L62.8293 55.1992L90.4003 73.2663C80.8493 76.2083 70.7963 79.2003 61.1083 81.7913L40.9353 67.7663L35.3523 69.2883L51.2363 89.5813C70.0313 89.3883 123.105 88.0743 156.329 71.3253C159.927 69.1723 160.003 66.8063 159.923 66.0473Z" fill="#080C52"/>
</svg>
