<svg width="167" height="172" viewBox="0 0 167 172" fill="none" xmlns="http://www.w3.org/2000/svg">
    <path d="M11.7045 157C11.5483 156.522 11.3423 156.093 11.0866 155.714C10.8357 155.331 10.535 155.004 10.1847 154.734C9.83902 154.464 9.44602 154.259 9.00568 154.116C8.56534 153.974 8.08239 153.903 7.55682 153.903C6.69508 153.903 5.91146 154.126 5.20597 154.571C4.50047 155.016 3.93939 155.672 3.52273 156.538C3.10606 157.405 2.89773 158.468 2.89773 159.727C2.89773 160.987 3.10843 162.05 3.52983 162.916C3.95123 163.783 4.52178 164.438 5.24148 164.884C5.96117 165.329 6.77083 165.551 7.67045 165.551C8.50379 165.551 9.23769 165.374 9.87216 165.018C10.5114 164.659 11.0085 164.152 11.3636 163.499C11.7235 162.84 11.9034 162.066 11.9034 161.176L12.4432 161.29H8.06818V159.727H13.608V161.29C13.608 162.488 13.3523 163.529 12.8409 164.415C12.3343 165.3 11.6335 165.987 10.7386 166.474C9.84848 166.957 8.82576 167.199 7.67045 167.199C6.38258 167.199 5.25095 166.896 4.27557 166.29C3.30492 165.684 2.54735 164.822 2.00284 163.705C1.46307 162.587 1.19318 161.261 1.19318 159.727C1.19318 158.577 1.34706 157.542 1.65483 156.624C1.96733 155.7 2.40767 154.914 2.97585 154.266C3.54403 153.617 4.21638 153.12 4.9929 152.774C5.76941 152.429 6.62405 152.256 7.55682 152.256C8.32386 152.256 9.03883 152.372 9.7017 152.604C10.3693 152.831 10.9635 153.155 11.4844 153.577C12.0099 153.993 12.4479 154.493 12.7983 155.075C13.1487 155.653 13.3902 156.295 13.5227 157H11.7045ZM16.6246 167V152.455H18.386V165.438H25.1474V167H16.6246ZM39.581 159.727C39.581 161.261 39.304 162.587 38.75 163.705C38.196 164.822 37.4361 165.684 36.4702 166.29C35.5043 166.896 34.401 167.199 33.1605 167.199C31.92 167.199 30.8168 166.896 29.8509 166.29C28.8849 165.684 28.125 164.822 27.571 163.705C27.017 162.587 26.7401 161.261 26.7401 159.727C26.7401 158.193 27.017 156.867 27.571 155.75C28.125 154.633 28.8849 153.771 29.8509 153.165C30.8168 152.559 31.92 152.256 33.1605 152.256C34.401 152.256 35.5043 152.559 36.4702 153.165C37.4361 153.771 38.196 154.633 38.75 155.75C39.304 156.867 39.581 158.193 39.581 159.727ZM37.8764 159.727C37.8764 158.468 37.6657 157.405 37.2443 156.538C36.8277 155.672 36.2618 155.016 35.5469 154.571C34.8366 154.126 34.0412 153.903 33.1605 153.903C32.2798 153.903 31.482 154.126 30.767 154.571C30.0568 155.016 29.491 155.672 29.0696 156.538C28.6529 157.405 28.4446 158.468 28.4446 159.727C28.4446 160.987 28.6529 162.05 29.0696 162.916C29.491 163.783 30.0568 164.438 30.767 164.884C31.482 165.329 32.2798 165.551 33.1605 165.551C34.0412 165.551 34.8366 165.329 35.5469 164.884C36.2618 164.438 36.8277 163.783 37.2443 162.916C37.6657 162.05 37.8764 160.987 37.8764 159.727ZM42.5426 167V152.455H47.6278C48.6411 152.455 49.4768 152.63 50.1349 152.98C50.7931 153.326 51.2831 153.792 51.6051 154.379C51.9271 154.962 52.0881 155.608 52.0881 156.318C52.0881 156.943 51.9768 157.459 51.7543 157.866C51.5365 158.274 51.2476 158.596 50.8878 158.832C50.5327 159.069 50.1468 159.244 49.7301 159.358V159.5C50.1752 159.528 50.6226 159.685 51.0724 159.969C51.5223 160.253 51.8987 160.66 52.2017 161.19C52.5047 161.721 52.6562 162.369 52.6562 163.136C52.6562 163.866 52.4905 164.521 52.1591 165.104C51.8277 165.686 51.3045 166.148 50.5895 166.489C49.8745 166.83 48.9441 167 47.7983 167H42.5426ZM44.304 165.438H47.7983C48.9489 165.438 49.7656 165.215 50.2486 164.77C50.7363 164.32 50.9801 163.776 50.9801 163.136C50.9801 162.644 50.8546 162.189 50.6037 161.773C50.3527 161.351 49.9953 161.015 49.5312 160.764C49.0672 160.509 48.518 160.381 47.8835 160.381H44.304V165.438ZM44.304 158.847H47.571C48.1013 158.847 48.5795 158.742 49.0057 158.534C49.4366 158.326 49.7775 158.032 50.0284 157.653C50.2841 157.275 50.4119 156.83 50.4119 156.318C50.4119 155.679 50.1894 155.137 49.7443 154.692C49.2992 154.242 48.5938 154.017 47.6278 154.017H44.304V158.847ZM55.5504 167V152.455H64.3288V154.017H57.3118V158.932H63.8743V160.494H57.3118V165.438H64.4425V167H55.5504ZM66.7081 154.017V152.455H77.6172V154.017H73.0433V167H71.282V154.017H66.7081ZM80.3356 167V152.455H85.2504C86.3867 152.455 87.3195 152.649 88.0487 153.037C88.7778 153.42 89.3176 153.948 89.668 154.621C90.0183 155.293 90.1935 156.058 90.1935 156.915C90.1935 157.772 90.0183 158.532 89.668 159.195C89.3176 159.857 88.7802 160.378 88.0558 160.757C87.3313 161.131 86.4057 161.318 85.2788 161.318H81.3015V159.727H85.2219C85.9985 159.727 86.6235 159.614 87.0969 159.386C87.5752 159.159 87.9208 158.837 88.1339 158.42C88.3517 157.999 88.4606 157.497 88.4606 156.915C88.4606 156.332 88.3517 155.823 88.1339 155.388C87.9161 154.952 87.5681 154.616 87.0898 154.379C86.6116 154.138 85.9795 154.017 85.1935 154.017H82.0969V167H80.3356ZM87.1822 160.466L90.7617 167H88.7163L85.1935 160.466H87.1822ZM105.401 159.727C105.401 161.261 105.124 162.587 104.57 163.705C104.016 164.822 103.256 165.684 102.29 166.29C101.325 166.896 100.221 167.199 98.9808 167.199C97.7403 167.199 96.6371 166.896 95.6712 166.29C94.7053 165.684 93.9453 164.822 93.3913 163.705C92.8374 162.587 92.5604 161.261 92.5604 159.727C92.5604 158.193 92.8374 156.867 93.3913 155.75C93.9453 154.633 94.7053 153.771 95.6712 153.165C96.6371 152.559 97.7403 152.256 98.9808 152.256C100.221 152.256 101.325 152.559 102.29 153.165C103.256 153.771 104.016 154.633 104.57 155.75C105.124 156.867 105.401 158.193 105.401 159.727ZM103.697 159.727C103.697 158.468 103.486 157.405 103.065 156.538C102.648 155.672 102.082 155.016 101.367 154.571C100.657 154.126 99.8615 153.903 98.9808 153.903C98.1001 153.903 97.3023 154.126 96.5874 154.571C95.8771 155.016 95.3113 155.672 94.8899 156.538C94.4732 157.405 94.2649 158.468 94.2649 159.727C94.2649 160.987 94.4732 162.05 94.8899 162.916C95.3113 163.783 95.8771 164.438 96.5874 164.884C97.3023 165.329 98.1001 165.551 98.9808 165.551C99.8615 165.551 100.657 165.329 101.367 164.884C102.082 164.438 102.648 163.783 103.065 162.916C103.486 162.05 103.697 160.987 103.697 159.727ZM106.962 154.017V152.455H117.871V154.017H113.297V167H111.536V154.017H106.962ZM119.794 154.017V152.455H130.703V154.017H126.129V167H124.368V154.017H119.794ZM135.183 152.455V167H133.422V152.455H135.183ZM150.249 152.455V167H148.544L140.618 155.58H140.476V167H138.714V152.455H140.419L148.374 163.903H148.516V152.455H150.249ZM163.716 157C163.56 156.522 163.354 156.093 163.098 155.714C162.847 155.331 162.547 155.004 162.196 154.734C161.851 154.464 161.458 154.259 161.017 154.116C160.577 153.974 160.094 153.903 159.569 153.903C158.707 153.903 157.923 154.126 157.218 154.571C156.512 155.016 155.951 155.672 155.534 156.538C155.118 157.405 154.909 158.468 154.909 159.727C154.909 160.987 155.12 162.05 155.542 162.916C155.963 163.783 156.533 164.438 157.253 164.884C157.973 165.329 158.783 165.551 159.682 165.551C160.516 165.551 161.249 165.374 161.884 165.018C162.523 164.659 163.02 164.152 163.375 163.499C163.735 162.84 163.915 162.066 163.915 161.176L164.455 161.29H160.08V159.727H165.62V161.29C165.62 162.488 165.364 163.529 164.853 164.415C164.346 165.3 163.645 165.987 162.75 166.474C161.86 166.957 160.837 167.199 159.682 167.199C158.394 167.199 157.263 166.896 156.287 166.29C155.317 165.684 154.559 164.822 154.015 163.705C153.475 162.587 153.205 161.261 153.205 159.727C153.205 158.577 153.359 157.542 153.667 156.624C153.979 155.7 154.419 154.914 154.988 154.266C155.556 153.617 156.228 153.12 157.005 152.774C157.781 152.429 158.636 152.256 159.569 152.256C160.336 152.256 161.051 152.372 161.713 152.604C162.381 152.831 162.975 153.155 163.496 153.577C164.022 153.993 164.46 154.493 164.81 155.075C165.16 155.653 165.402 156.295 165.534 157H163.716Z" fill="#080C52"/>
    <path d="M100.496 142.922C134.896 133.058 154.786 97.1754 144.922 62.7756C135.058 28.3758 99.1753 8.48567 64.7755 18.3496C30.3758 28.2136 10.4856 64.0964 20.3496 98.4962C30.2135 132.896 66.0964 152.786 100.496 142.922Z" fill="#00A5BD"/>
    <path d="M147.362 77.7013C147.219 74.5003 146.84 71.3633 146.249 68.2993C87.369 77.6373 51.729 57.5653 29.796 43.1562C22.277 53.7382 17.8409 66.6642 17.8409 80.6342C17.8409 87.5542 18.9369 94.2153 20.9449 100.467C89.6349 111.822 129.089 91.7833 147.362 77.7013Z" fill="white"/>
    <path d="M146.274 82.5983C146.274 82.5983 117.612 120.06 26.5189 113.01C29.5459 118.245 33.2799 123.016 37.5969 127.193C62.4029 125.654 123.647 118.248 146.274 82.5983Z" fill="white"/>
    <path d="M161.923 66.0473C161.663 63.5813 156.331 62.2613 155.315 61.8813C154.298 61.5023 151.663 58.3683 139.708 59.3673C135.675 59.7043 124.121 63.3233 109.472 67.9333L74.2439 54.0933L67.0709 45.5413L63.7439 45.8792L64.8289 55.1992L92.3999 73.2663C82.8489 76.2083 72.7959 79.2003 63.1079 81.7913L42.9349 67.7663L37.3519 69.2883L53.2359 89.5813C72.0309 89.3883 125.105 88.0743 158.329 71.3253C161.927 69.1723 162.003 66.8063 161.923 66.0473Z" fill="#080C52"/>
</svg>
